<svg viewBox="0 0 194 117" fill="none" class="w-[306px] h-auto" xmlns="http://www.w3.org/2000/svg">
    <g clip-path="url(#clip0_5414_21807)">
    <path fill-rule="evenodd" clip-rule="evenodd" d="M11.7174 28.813H18.8468C23.1512 28.813 24.8129 27.8393 25.6653 26.2254V28.4794C25.6653 33.9289 22.9314 33.9289 16.3006 33.9289H12.9288C9.12292 33.9289 7.18243 32.8369 7.18243 30.7012V29.9211H3.54269V30.8303C3.54269 33.9074 5.71367 37.1997 11.8085 37.1997H19.6133C24.1483 37.1997 29.5516 35.8548 29.5516 29.4962V8.66652H25.9118V11.6414C24.5449 8.70417 21.7736 8.34912 19.7312 8.34912H12.3767C10.0396 8.34912 2.91016 8.34912 2.91016 16.8972V20.3455C2.91016 25.8811 5.96025 28.8183 11.7227 28.8183L11.7174 28.813ZM6.78576 15.7675C6.82328 12.8841 8.63512 11.6038 12.6876 11.6038H19.7259C21.8701 11.6038 23.3763 12.0933 24.3359 13.067C25.2954 14.0515 25.7135 15.5254 25.6653 17.7095V20.2218C25.6653 23.9122 23.6497 25.5529 19.1255 25.5529H12.4464C10.2754 25.5529 8.91922 25.171 8.06691 24.2941C7.17171 23.3957 6.77504 21.8948 6.79112 19.5763V15.7675H6.78576Z" fill="#ffffff"></path>
    <path fill-rule="evenodd" clip-rule="evenodd" d="M38.5904 16.4077C38.5904 14.1913 39.9574 11.5984 43.8169 11.5984H45.9396C52.0184 11.5984 52.9404 12.3408 52.9404 17.3007V18.4035H56.5801V15.7245C56.5801 10.3396 54.1894 8.34375 47.7568 8.34375H44.4977C41.5977 8.34375 39.5285 9.30669 38.3546 11.1895V8.66652H34.7148V29.7382H38.5958V16.4077H38.5904Z" fill="#ffffff"></path>
    <path fill-rule="evenodd" clip-rule="evenodd" d="M65.1554 30.0718H73.4427C78.2939 30.0718 79.7037 29.6253 80.631 28.1351V29.7382H84.512V15.6761C84.512 8.9086 79.0819 8.34375 73.5177 8.34375H68.0501C61.8159 8.34375 59.275 9.94686 59.275 13.8578V15.0897H63.156V14.1429C63.156 12.8088 63.5258 11.6038 68.1251 11.6038H73.1961C78.7763 11.6038 80.631 12.1794 80.631 15.6008V18.9092C79.4303 17.2684 77.7203 16.8058 73.4427 16.8058H67.8893C62.309 16.8058 58.3477 17.2039 58.3477 22.2768V23.6594C58.3477 28.2105 60.3257 30.0664 65.1554 30.0664V30.0718ZM62.2286 23.0837C62.2286 20.6629 63.3168 20.0712 67.7338 20.0712H73.0353C78.6423 20.0712 80.6364 20.5177 80.6364 23.0461V23.9821C80.6364 26.3814 78.4118 26.801 72.1562 26.801H67.573C62.77 26.801 62.234 25.8273 62.234 23.74V23.0837H62.2286Z" fill="#ffffff"></path>
    <path fill-rule="evenodd" clip-rule="evenodd" d="M93.2823 17.7902C93.2823 13.2284 94.7511 11.5984 103.001 11.5984H103.88C110.688 11.5984 111.234 13.6856 111.234 16.4077V29.7382H115.115V15.5631C115.115 12.8733 113.979 8.34912 106.378 8.34912H101.178C97.2598 8.34912 94.4831 8.92473 93.0304 11.6575V8.67189H89.3906V29.7436H93.2716V17.7956L93.2823 17.7902Z" fill="#ffffff"></path>
    <path d="M124.764 0H120.883V4.22833H124.764V0Z" fill="#ffffff"></path>
    <path d="M124.764 8.6665H120.883V29.7382H124.764V8.6665Z" fill="#ffffff"></path>
    <path fill-rule="evenodd" clip-rule="evenodd" d="M132.376 23.3258C132.376 27.8016 135.148 30.0664 140.589 30.0664H142.481C149.991 30.0664 150.58 26.758 150.58 22.4382V19.9528H147.348V21.7066C147.348 26.0371 146.582 26.7956 142.25 26.7956H141.162C137.404 26.7956 136.257 25.6821 136.257 21.9863V11.9104H149.975V8.65576H136.257V3.77112H132.376V8.66652H127.879V11.9211H132.376V23.3312V23.3258Z" fill="#ffffff"></path>
    <path fill-rule="evenodd" clip-rule="evenodd" d="M162.507 30.0718H168.778C173.694 30.0718 179.328 29.3402 179.328 23.7024V23.0891H175.458L175.447 23.2828C175.254 26.2846 173.683 26.8064 169.341 26.8064H164.603C158.406 26.8064 156.53 25.4723 156.53 21.1148V20.0228H179.328V17.5105C179.328 9.4358 173.833 8.34375 168.457 8.34375H162.903C157.832 8.34375 152.633 9.35511 152.633 16.8919V21.3892C152.633 29.0819 157.908 30.0664 162.507 30.0664V30.0718ZM163.386 11.5984H168.457C174.23 11.5984 175.442 13.7771 175.442 15.5954V16.7628H156.541C156.873 12.4322 158.02 11.5984 163.386 11.5984Z" fill="#ffffff"></path>
    <path fill-rule="evenodd" clip-rule="evenodd" d="M57.3755 71.7471C62.1249 71.7471 70.0851 71.7471 70.0851 63.1344V61.187C70.0851 55.5977 66.4186 53.1123 58.2064 53.1123H46.1883C39.9541 53.1123 39.3698 51.9719 39.3698 48.9593C39.3698 44.6772 41.3853 44.2038 49.3456 44.2038H53.65C64.1618 44.2038 64.1726 44.9838 64.253 49.2552L64.2637 49.8846H69.3347V48.2062C69.3347 41.9229 65.7432 39.5935 56.1051 39.5935H47.3568C39.0803 39.5935 34.2773 41.0783 34.2773 48.6688C34.2773 57.2546 38.9624 58.0777 51.3772 58.0777H59.0909C64.1886 58.0777 65.0034 59.0514 65.0034 62.193C65.0034 65.8457 63.9421 67.1422 58.0027 67.1422H45.3949C40.3883 67.1422 39.4073 65.7704 39.4073 63.398V60.6276H34.3256V63.4841C34.3256 70.7788 40.2757 71.7525 46.1025 71.7525H57.3809L57.3755 71.7471Z" fill="#ffffff"></path>
    <path fill-rule="evenodd" clip-rule="evenodd" d="M104.864 44.548V39.9216H74.1055V71.4136H105.014V66.7979H79.4445V57.5182H103.867V52.9025H79.4445V44.548H104.864Z" fill="#ffffff"></path>
    <path fill-rule="evenodd" clip-rule="evenodd" d="M138.963 66.7979H113.383V57.5182H137.805V52.9025H113.383V44.548H138.797V39.9216H108.055V71.4136H138.963V66.7979Z" fill="#ffffff"></path>
    <path fill-rule="evenodd" clip-rule="evenodd" d="M166.628 39.9216H141.75V71.4136H166.515C171.919 71.4136 175.237 70.3 177.295 67.7985C179.252 65.4154 180.077 61.7895 180.077 55.673C180.077 43.456 177.065 39.9216 166.628 39.9216ZM174.754 57.303C174.754 66.1201 171.559 66.8033 167.051 66.8033H147.073V44.5534H167.711C172.476 44.5534 174.749 45.9898 174.749 54.2205V57.3084L174.754 57.303Z" fill="#ffffff"></path>
    <path fill-rule="evenodd" clip-rule="evenodd" d="M16.8616 72.1561C25.4705 72.1561 32.4713 65.1088 32.4713 56.4531C32.4713 54.85 31.5278 51.3156 31.0025 49.917C30.8631 49.5189 30.7827 49.3252 30.5576 49.3252C30.2788 49.3252 30.2359 49.5673 30.1877 49.8901C30.0858 50.3904 29.8929 51.4555 29.1531 52.7735C26.5587 57.4268 20.3406 64.7699 17.8104 67.6749V62.7741H15.9343V67.6426C13.254 64.7484 6.81614 57.5613 4.70949 53.0586C3.91614 51.3802 3.70172 50.2021 3.58379 49.6211C3.51947 49.2499 3.47122 49.0078 3.18712 49.0078C2.95662 49.0078 2.89229 49.1638 2.6886 49.6856L2.4849 50.2128C1.89525 51.6761 1.27344 54.8769 1.27344 56.4531C1.27344 65.1035 8.27418 72.1561 16.867 72.1561H16.8616Z" fill="#ffffff"></path>
    <path fill-rule="evenodd" clip-rule="evenodd" d="M20.5384 61.3378H13.082C13.2375 61.4131 15.3066 62.2631 16.8236 62.2631C18.3406 62.2631 20.5384 61.3378 20.5384 61.3378Z" fill="#ffffff"></path>
    <path fill-rule="evenodd" clip-rule="evenodd" d="M22.7108 59.4818H10.832L11.6897 60.4017H22.0086L22.7108 59.4818Z" fill="#ffffff"></path>
    <path fill-rule="evenodd" clip-rule="evenodd" d="M23.9092 57.6097H9.67188L10.1811 58.5834H23.3625L23.9092 57.6097Z" fill="#ffffff"></path>
    <path fill-rule="evenodd" clip-rule="evenodd" d="M24.4851 55.6246H9.13281L9.32579 56.636H24.26L24.4851 55.6246Z" fill="#ffffff"></path>
    <path fill-rule="evenodd" clip-rule="evenodd" d="M24.5648 53.7526H9.05705L9.01953 54.8016H24.5648V53.7526Z" fill="#ffffff"></path>
    <path fill-rule="evenodd" clip-rule="evenodd" d="M9.21094 52.8918H24.4078L24.0647 51.9181H9.51648L9.21094 52.8918Z" fill="#ffffff"></path>
    <path fill-rule="evenodd" clip-rule="evenodd" d="M10.0664 51.0197H23.5587L22.9797 49.9814H10.6829L10.0664 51.0197Z" fill="#ffffff"></path>
    <path fill-rule="evenodd" clip-rule="evenodd" d="M11.2539 49.1261H22.3554L21.6264 48.1901H11.9186L11.2539 49.1261Z" fill="#ffffff"></path>
    <path fill-rule="evenodd" clip-rule="evenodd" d="M12.5312 47.254H21.0008L20.2342 46.318H13.2335L12.5312 47.254Z" fill="#ffffff"></path>
    <path fill-rule="evenodd" clip-rule="evenodd" d="M13.9258 45.4197H19.6615L18.8413 44.4836H14.5905L13.9258 45.4197Z" fill="#ffffff"></path>
    <path fill-rule="evenodd" clip-rule="evenodd" d="M15.3945 43.5099H18.257L17.6406 42.7406H15.8663L15.3945 43.5099Z" fill="#ffffff"></path>
    <path fill-rule="evenodd" clip-rule="evenodd" d="M16.2891 41.8799H17.3344L16.7876 41.0245L16.2891 41.8799Z" fill="#ffffff"></path>
    <path fill-rule="evenodd" clip-rule="evenodd" d="M6.55493 79.144H4.66806C2.52924 79.144 1.77341 79.639 1.77341 81V81.1452L3.15641 81.1076L3.18321 81C3.27434 80.575 3.7407 80.3598 4.60373 80.3598H6.45308C8.32388 80.3598 8.95105 80.5481 8.95105 81.6402V82.9205C8.50078 82.3341 7.8736 81.9737 6.53349 81.9737H4.61981C2.66861 81.9737 1.26953 82.1082 1.26953 83.8673V84.3353C1.26953 85.8685 1.98783 86.5356 3.67637 86.5356H6.53349C8.0237 86.5356 8.5919 86.3096 8.95105 85.8039V86.428H10.4145V81.6671C10.4145 79.3485 8.51686 79.1494 6.56029 79.1494L6.55493 79.144ZM8.94569 84.4375C8.94569 85.1423 8.3614 85.3198 6.08857 85.3198H4.50724C2.80798 85.3198 2.72757 84.9594 2.72757 84.3622V84.147C2.72757 83.4262 2.9956 83.1895 4.56085 83.1895H6.39412C8.281 83.1895 8.94569 83.3347 8.94569 84.1363V84.4429V84.4375Z" fill="#ffffff"></path>
    <path fill-rule="evenodd" clip-rule="evenodd" d="M18.2993 79.144H16.5196C15.2331 79.144 14.3004 79.3162 13.7536 80.1016V79.2463H12.3867V86.4172H13.8501V82.3664C13.8501 80.8709 14.3433 80.3544 17.1307 80.3544H17.4363C19.7359 80.3544 19.9181 80.9946 19.9181 81.9038V86.4226H21.3655V81.624C21.3655 80.6934 20.9688 79.144 18.2939 79.144H18.2993Z" fill="#ffffff"></path>
    <path fill-rule="evenodd" clip-rule="evenodd" d="M31.0249 80.1715H30.9606C30.6015 79.8649 29.8456 79.2785 28.795 79.2408L27.0528 79.1494C24.1582 79.1494 23.1719 79.9348 23.1719 82.2695V83.4961C23.1719 86.1751 25.0963 86.5355 26.9724 86.5355H28.6449C29.7491 86.5355 30.5854 86.2181 31.0893 85.6049L31.1 86.4333H32.4669V76.3682H31.0196V80.1823L31.0249 80.1715ZM31.0249 83.4638C31.0249 84.7549 30.3602 85.3197 28.8057 85.3197H26.8652C24.9676 85.3197 24.6353 84.7172 24.6353 83.4799V82.1189C24.6353 80.6234 25.3804 80.3598 26.9456 80.3598H28.5538C30.1887 80.3598 31.0249 80.6395 31.0249 82.1458V83.4638Z" fill="#ffffff"></path>
    <path fill-rule="evenodd" clip-rule="evenodd" d="M46.6136 79.144H44.6999C42.9202 79.144 41.0977 79.4883 41.0977 82.0651V83.5714C41.0977 86.1966 42.9577 86.5302 44.5659 86.5302H46.7208C49.5082 86.5302 50.1622 85.2229 50.2962 84.4375L50.323 84.2923L48.9561 84.2546L48.9293 84.3622C48.8221 84.9647 48.4522 85.3198 46.9245 85.3198H45.2895C43.1775 85.3198 42.5664 84.9055 42.5664 83.48V83.1733H50.4195V82.2642C50.4195 79.5152 48.5058 79.144 46.6189 79.144H46.6136ZM48.9614 81.9576H42.5718C42.6897 80.6127 43.0917 80.3598 44.8714 80.3598H46.6136C48.1574 80.3598 48.9668 80.8009 48.9668 81.6402V81.9576H48.9614Z" fill="#ffffff"></path>
    <path fill-rule="evenodd" clip-rule="evenodd" d="M56.8137 79.144H55.6988C54.8625 79.144 54.1978 79.4399 53.6404 80.0532V79.2516H52.2734V86.4226H53.7208V81.9038C53.7208 81.1829 54.171 80.3544 55.4629 80.3544H56.1919C58.2932 80.3544 58.4755 80.5696 58.5023 81.6724L58.513 81.8069H59.9067V81.6724C59.9067 79.8434 59.0437 79.1387 56.8137 79.1387V79.144Z" fill="#ffffff"></path>
    <path fill-rule="evenodd" clip-rule="evenodd" d="M66.7161 79.144H65.0169C63.13 79.144 60.9805 79.4776 60.9805 82.0759V83.5983C60.9805 86.1966 63.1354 86.5302 65.0169 86.5302H66.7161C68.603 86.5302 70.7526 86.1966 70.7526 83.5983V82.0759C70.7526 79.4776 68.5977 79.144 66.7161 79.144ZM69.3052 83.5284C69.3052 85.0239 68.4529 85.3144 67.0753 85.3144H64.6577C63.2747 85.3144 62.4278 85.0185 62.4278 83.5284V82.1405C62.4278 80.6449 63.2801 80.3544 64.6577 80.3544H67.0753C68.4583 80.3544 69.3052 80.6503 69.3052 82.1405V83.5284Z" fill="#ffffff"></path>
    <path fill-rule="evenodd" clip-rule="evenodd" d="M78.3885 82.1996H75.2419C74.0197 82.1996 73.9286 81.893 73.9286 81.425V81.1721C73.9286 80.5589 74.0894 80.3598 75.8798 80.3598H77.965C80.0395 80.306 80.1575 81.1345 80.1575 81.1345V81.2528H81.1652V81.1183C81.1652 79.9295 80.6345 79.144 78.0294 79.144H76.1961C73.4837 79.144 72.4759 79.6497 72.4759 81.0215V81.4196C72.4759 82.8344 73.1782 83.3939 74.9096 83.3939H78.5922C79.9752 83.3939 80.0824 83.7382 80.0824 84.303V84.3568C80.0824 85.2391 79.6857 85.3144 77.8525 85.3144H75.3009C74.0787 85.3144 73.7196 85.0992 73.7196 84.3837V84.2492L72.4062 84.2869V84.4214C72.4062 86.5302 74.0519 86.5302 75.4992 86.5302H78.1151C79.3909 86.5302 81.5297 86.5302 81.5297 84.3945V84.3676C81.5297 82.3556 80.1735 82.1943 78.3939 82.1943L78.3885 82.1996Z" fill="#ffffff"></path>
    <path d="M85.0059 76.3574H83.5586V77.8906H85.0059V76.3574Z" fill="#ffffff"></path>
    <path d="M85.0059 79.2516H83.5586V86.4225H85.0059V79.2516Z" fill="#ffffff"></path>
    <path fill-rule="evenodd" clip-rule="evenodd" d="M92.806 79.144H91.1067C89.2199 79.144 87.0703 79.4776 87.0703 82.0759V83.5983C87.0703 86.1966 89.2252 86.5302 91.1067 86.5302H92.806C94.6929 86.5302 96.8424 86.1966 96.8424 83.5983V82.0759C96.8424 79.4776 94.6875 79.144 92.806 79.144ZM95.4005 83.5284C95.4005 85.0239 94.5481 85.3144 93.1812 85.3144H90.7476C89.3646 85.3144 88.5176 85.0185 88.5176 83.5284V82.1405C88.5176 80.6449 89.3699 80.3544 90.7476 80.3544H93.1812C94.5481 80.3544 95.4005 80.6503 95.4005 82.1405V83.5284Z" fill="#ffffff"></path>
    <path fill-rule="evenodd" clip-rule="evenodd" d="M104.655 79.144H102.859C101.583 79.144 100.774 79.4614 100.109 80.2361V79.2516H98.7422V86.4226H100.19V82.3718C100.19 80.8763 100.683 80.3598 103.486 80.3598H103.792C106.091 80.3598 106.263 81 106.263 81.9091V86.428H107.726V81.6294C107.726 80.6987 107.33 79.1494 104.655 79.1494V79.144Z" fill="#ffffff"></path>
    <path fill-rule="evenodd" clip-rule="evenodd" d="M124.001 83.9964C124.001 84.8894 123.379 85.3144 122.087 85.3144H120.082C118.716 85.3144 117.799 85.0185 117.799 83.5553V82.1028C117.799 80.4889 118.769 80.3544 119.847 80.3544H122.039C123.368 80.3544 123.872 80.7149 123.872 81.6455V81.9414H125.255V81.624C125.255 79.9833 124.167 79.144 122.028 79.144H120.034C118.212 79.144 116.352 79.4883 116.352 82.0651V83.6145C116.352 85.5188 117.413 86.5356 119.445 86.5356H122.13C124.43 86.5356 125.373 85.7878 125.373 83.9749V83.6414H124.006V84.0018L124.001 83.9964Z" fill="#ffffff"></path>
    <path fill-rule="evenodd" clip-rule="evenodd" d="M132.583 79.144H130.884C128.997 79.144 126.848 79.4776 126.848 82.0759V83.5983C126.848 86.1966 129.003 86.5302 130.884 86.5302H132.583C134.47 86.5302 136.636 86.1966 136.636 83.5983V82.0759C136.636 79.4776 134.47 79.144 132.583 79.144ZM135.172 83.5284C135.172 85.0239 134.32 85.3144 132.942 85.3144H130.525C129.142 85.3144 128.295 85.0185 128.295 83.5284V82.1405C128.295 80.6449 129.147 80.3544 130.525 80.3544H132.942C134.325 80.3544 135.172 80.6503 135.172 82.1405V83.5284Z" fill="#ffffff"></path>
    <path fill-rule="evenodd" clip-rule="evenodd" d="M144.42 79.144H142.64C141.354 79.144 140.421 79.3162 139.89 80.1016V79.2463H138.523V86.4172H139.971V82.3664C139.971 80.8709 140.464 80.3544 143.267 80.3544H143.573C145.873 80.3544 146.044 80.9946 146.044 81.9038V86.4226H147.508V81.624C147.508 80.6934 147.111 79.144 144.425 79.144H144.42Z" fill="#ffffff"></path>
    <path fill-rule="evenodd" clip-rule="evenodd" d="M155.418 83.679C155.418 85.0131 155.257 85.3198 153.719 85.3198H153.333C152.1 85.3198 151.714 84.9593 151.714 83.7704V80.462H156.442V79.2462H151.714V77.6055H150.251V79.2462H148.707V80.462H150.251V84.2223C150.251 85.7555 151.232 86.5302 153.145 86.5302H153.794C156.437 86.5302 156.635 85.3951 156.635 83.9157V83.0334H155.413V83.6736L155.418 83.679Z" fill="#ffffff"></path>
    <path fill-rule="evenodd" clip-rule="evenodd" d="M172.537 79.144H170.822C168.951 79.144 166.785 79.4776 166.785 82.0759V83.5983C166.785 86.1966 168.951 86.5302 170.822 86.5302H172.537C174.408 86.5302 176.573 86.1966 176.573 83.5983V82.0759C176.573 79.4776 174.408 79.144 172.537 79.144ZM175.126 83.5284C175.126 85.0239 174.263 85.3144 172.896 85.3144H170.462C169.096 85.3144 168.243 85.0185 168.243 83.5284V82.1405C168.243 80.6449 169.096 80.3544 170.462 80.3544H172.896C174.263 80.3544 175.126 80.6503 175.126 82.1405V83.5284Z" fill="#ffffff"></path>
    <path d="M180.076 76.3574H178.629V86.4226H180.076V76.3574Z" fill="#ffffff"></path>
    <path fill-rule="evenodd" clip-rule="evenodd" d="M162.65 79.1279H161.535C160.699 79.1279 160.034 79.4077 159.477 80.0371V79.2355H158.094V86.3957H159.557V81.8769C159.557 81.1722 160.007 80.3437 161.299 80.3437H162.028C164.13 80.3437 164.312 80.5589 164.355 81.6617V81.7801H165.748V81.6456C165.748 79.8327 164.885 79.1279 162.655 79.1279H162.65Z" fill="#ffffff"></path>
    <path d="M4.8741 114.412C4.61144 114.412 4.46135 114.219 4.46135 113.998V113.697C3.99499 114.224 3.24989 114.471 2.4083 114.471C0.934172 114.471 -0.00390625 113.697 -0.00390625 112.659C-0.00390625 111.55 1.00386 110.819 2.53159 110.819C3.42678 110.819 4.14508 111.19 4.46135 111.567V110.749C4.46135 109.436 3.81273 108.844 2.4619 108.844C1.80257 108.844 1.30404 108.984 0.767998 109.205C0.725115 109.221 0.655429 109.248 0.575022 109.248C0.355244 109.248 0.215872 109.124 0.215872 108.904C0.215872 108.764 0.31236 108.656 0.42493 108.602C0.960974 108.328 1.60959 108.145 2.53159 108.145C4.26837 108.145 5.28686 109.07 5.28686 110.743V114.003C5.28686 114.224 5.13676 114.418 4.8741 114.418V114.412ZM2.59055 111.443C1.51846 111.443 0.826963 111.927 0.826963 112.659C0.826963 113.39 1.5131 113.864 2.53695 113.864C3.56079 113.864 4.46671 113.396 4.46671 112.659C4.46671 111.922 3.52863 111.443 2.59591 111.443H2.59055Z" fill="#ffffff"></path>
    <path d="M18.6996 114.412C18.5495 114.412 18.4637 114.342 18.3833 114.235L12.5458 106.51V114.03C12.5458 114.24 12.3796 114.418 12.1598 114.418C11.924 114.418 11.7578 114.24 11.7578 114.03V105.391C11.7578 105.154 11.924 104.987 12.1706 104.987C12.3099 104.987 12.4171 105.068 12.4868 105.165L18.3136 112.906V105.386C18.3136 105.149 18.4798 104.982 18.7157 104.982C18.9515 104.982 19.1016 105.16 19.1016 105.386V114.025C19.1016 114.235 18.9623 114.412 18.6996 114.412Z" fill="#ffffff"></path>
    <path d="M26.0577 114.412C25.795 114.412 25.6449 114.219 25.6449 113.998V113.697C25.1786 114.224 24.4335 114.471 23.5919 114.471C22.1178 114.471 21.1797 113.697 21.1797 112.659C21.1797 111.55 22.1875 110.819 23.7152 110.819C24.6104 110.819 25.3287 111.19 25.6449 111.567V110.749C25.6449 109.436 24.9963 108.844 23.6455 108.844C22.9862 108.844 22.4876 108.984 21.9516 109.205C21.9087 109.221 21.839 109.248 21.7586 109.248C21.5388 109.248 21.3995 109.124 21.3995 108.904C21.3995 108.764 21.496 108.656 21.6085 108.602C22.1446 108.328 22.7932 108.145 23.7152 108.145C25.452 108.145 26.4705 109.07 26.4705 110.743V114.003C26.4705 114.224 26.3204 114.418 26.0577 114.418V114.412ZM23.7741 111.443C22.7021 111.443 22.0106 111.927 22.0106 112.659C22.0106 113.39 22.6967 113.864 23.7205 113.864C24.7444 113.864 25.6503 113.396 25.6503 112.659C25.6503 111.922 24.7122 111.443 23.7795 111.443H23.7741Z" fill="#ffffff"></path>
    <path d="M31.4656 108.307C31.6425 108.307 31.8087 108.457 31.8087 108.651C31.8087 108.845 31.6425 108.995 31.4656 108.995H30.0719V113.998C30.0719 114.235 29.895 114.412 29.6591 114.412C29.4233 114.412 29.2464 114.235 29.2464 113.998V108.995H28.0188C27.8259 108.995 27.6758 108.845 27.6758 108.651C27.6758 108.457 27.8259 108.307 28.0188 108.307H29.2464V106.37C29.2464 106.133 29.4233 105.956 29.6591 105.956C29.895 105.956 30.0719 106.133 30.0719 106.37V108.307H31.4656Z" fill="#ffffff"></path>
    <path d="M33.3964 105.956C33.6859 105.956 33.9217 106.192 33.9217 106.483C33.9217 106.773 33.6859 107.01 33.3964 107.01C33.107 107.01 32.8711 106.773 32.8711 106.483C32.8711 106.192 33.107 105.956 33.3964 105.956ZM33.3964 114.412C33.1606 114.412 32.9837 114.235 32.9837 113.998V108.608C32.9837 108.371 33.1606 108.194 33.3964 108.194C33.6323 108.194 33.8092 108.371 33.8092 108.608V113.998C33.8092 114.235 33.6323 114.412 33.3964 114.412Z" fill="#ffffff"></path>
    <path d="M37.9261 113.127L39.9898 108.441C40.0595 108.274 40.156 108.194 40.349 108.194C40.5848 108.194 40.7349 108.36 40.7349 108.565C40.7349 108.635 40.7081 108.715 40.6813 108.775L38.2691 114.181C38.1994 114.321 38.119 114.418 37.9261 114.418C37.7331 114.418 37.6527 114.321 37.583 114.181L35.1708 108.775C35.144 108.721 35.1172 108.635 35.1172 108.565C35.1172 108.355 35.2673 108.194 35.5031 108.194C35.6961 108.194 35.7926 108.274 35.8623 108.441L37.9261 113.127Z" fill="#ffffff"></path>
    <path d="M47.5062 111.233C47.5062 111.427 47.3401 111.577 47.1632 111.577H42.387C42.4299 112.685 43.2554 113.761 44.7027 113.761C45.4746 113.761 46.0804 113.487 46.5735 112.89C46.6432 112.809 46.7397 112.712 46.8898 112.712C47.1096 112.712 47.2329 112.879 47.2329 113.057C47.2329 113.154 47.2061 113.223 47.1524 113.304C46.6861 113.955 45.7909 114.466 44.7027 114.466C42.7301 114.466 41.5508 112.976 41.5508 111.303C41.5508 109.63 42.8051 108.14 44.6223 108.14C46.3162 108.14 47.517 109.469 47.517 111.238L47.5062 111.233ZM44.617 108.828C43.4055 108.828 42.521 109.754 42.4138 110.889H46.7504C46.6378 109.727 45.8016 108.828 44.617 108.828Z" fill="#ffffff"></path>
    <path d="M52.7915 114.472C51.43 114.472 50.1756 113.987 49.318 113.326C49.1947 113.218 49.125 113.105 49.125 112.981C49.125 112.788 49.2751 112.648 49.4681 112.648C49.5914 112.648 49.7039 112.702 49.8004 112.772C50.4866 113.256 51.4675 113.751 52.7755 113.751C54.4265 113.751 55.3806 113.073 55.3806 112.051C55.3806 111.029 54.3461 110.528 52.7379 110.044C50.0095 109.216 49.3233 108.36 49.3233 107.279C49.3233 105.676 50.91 104.928 52.7379 104.928C53.8261 104.928 54.8339 105.219 55.6969 105.81C55.8202 105.891 55.8899 105.977 55.8899 106.101C55.8899 106.268 55.7666 106.461 55.52 106.461C55.4503 106.461 55.3699 106.434 55.3002 106.391C54.4479 105.864 53.5527 105.644 52.7272 105.644C51.296 105.644 50.1542 106.128 50.1542 107.274C50.1542 108.215 50.91 108.683 52.7594 109.291C54.9196 110.012 56.2169 110.48 56.2169 112.013C56.2169 113.546 54.925 114.461 52.8023 114.461L52.7915 114.472Z" fill="#ffffff"></path>
    <path d="M63.6391 111.233C63.6391 111.427 63.4729 111.577 63.296 111.577H58.5198C58.5627 112.685 59.3882 113.761 60.8355 113.761C61.6074 113.761 62.2132 113.487 62.7063 112.89C62.776 112.809 62.8725 112.712 63.0226 112.712C63.2424 112.712 63.3657 112.879 63.3657 113.057C63.3657 113.154 63.3389 113.223 63.2853 113.304C62.8189 113.955 61.9237 114.466 60.8355 114.466C58.8629 114.466 57.6836 112.976 57.6836 111.303C57.6836 109.63 58.9379 108.14 60.7551 108.14C62.449 108.14 63.6498 109.469 63.6498 111.238L63.6391 111.233ZM60.7444 108.828C59.5329 108.828 58.6485 109.754 58.5413 110.889H62.8779C62.7653 109.727 61.9291 108.828 60.7444 108.828Z" fill="#ffffff"></path>
    <path d="M71.0453 111.233C71.0453 111.427 70.8791 111.577 70.7022 111.577H65.9261C65.969 112.685 66.7945 113.761 68.2418 113.761C69.0137 113.761 69.6194 113.487 70.1126 112.89C70.1823 112.809 70.2788 112.712 70.4289 112.712C70.6486 112.712 70.7719 112.879 70.7719 113.057C70.7719 113.154 70.7451 113.223 70.6915 113.304C70.2252 113.955 69.33 114.466 68.2418 114.466C66.2691 114.466 65.0898 112.976 65.0898 111.303C65.0898 109.63 66.3442 108.14 68.1614 108.14C69.8553 108.14 71.056 109.469 71.056 111.238L71.0453 111.233ZM68.156 108.828C66.9446 108.828 66.0601 109.754 65.9529 110.889H70.2895C70.1769 109.727 69.3407 108.828 68.156 108.828Z" fill="#ffffff"></path>
    <path d="M77.9681 113.197C77.4428 113.987 76.6066 114.466 75.5023 114.466C73.8245 114.466 72.4844 113.137 72.4844 111.303C72.4844 109.469 73.8191 108.14 75.5023 108.14C76.6066 108.14 77.4428 108.624 77.9681 109.409V105.402C77.9681 105.165 78.145 104.987 78.3809 104.987C78.6167 104.987 78.7936 105.165 78.7936 105.402V113.998C78.7936 114.235 78.6167 114.412 78.3809 114.412C78.145 114.412 77.9681 114.235 77.9681 113.998V113.197ZM75.6256 113.767C77.0461 113.767 77.9681 112.648 77.9681 111.308C77.9681 109.969 77.0461 108.85 75.6256 108.85C74.2051 108.85 73.3099 109.872 73.3099 111.308C73.3099 112.745 74.248 113.767 75.6256 113.767Z" fill="#ffffff"></path>
    <path d="M93.1237 112.922C92.3785 113.767 91.0599 114.472 89.4035 114.472C86.3159 114.472 84.8203 112.078 84.8203 109.705C84.8203 107.026 86.7179 104.939 89.4035 104.939C90.6578 104.939 91.7996 105.407 92.5715 106.225C92.6412 106.305 92.6841 106.402 92.6841 106.515C92.6841 106.725 92.534 106.876 92.3142 106.876C92.2017 106.876 92.1052 106.849 92.0248 106.763C91.3225 106.085 90.4809 105.697 89.4089 105.697C87.136 105.697 85.6512 107.537 85.6512 109.705C85.6512 111.873 86.9323 113.767 89.4357 113.767C90.6364 113.767 91.7192 113.31 92.4375 112.594V110.55H89.8055C89.6126 110.55 89.4464 110.399 89.4464 110.189C89.4464 109.98 89.6126 109.829 89.8055 109.829H92.8342C93.054 109.829 93.2362 109.98 93.2362 110.216V112.605C93.2362 112.745 93.1933 112.842 93.1237 112.922Z" fill="#ffffff"></path>
    <path d="M97.9964 108.925C96.8117 108.925 96.013 110.06 96.013 111.604V113.993C96.013 114.213 95.8361 114.407 95.6002 114.407C95.3805 114.407 95.1875 114.213 95.1875 113.993V108.602C95.1875 108.355 95.3644 108.188 95.6002 108.188C95.8468 108.188 96.013 108.366 96.013 108.602V109.571C96.2757 108.785 97.0208 108.188 97.9964 108.188C98.2322 108.188 98.4091 108.328 98.4091 108.549C98.4091 108.796 98.2161 108.92 97.9964 108.92V108.925Z" fill="#ffffff"></path>
    <path d="M102.247 114.471C100.403 114.471 99.1055 113.062 99.1055 111.308C99.1055 109.555 100.397 108.145 102.247 108.145C104.096 108.145 105.388 109.555 105.388 111.308C105.388 113.062 104.091 114.471 102.247 114.471ZM102.247 108.855C100.955 108.855 99.931 109.893 99.931 111.303C99.931 112.712 100.949 113.751 102.247 113.751C103.544 113.751 104.562 112.712 104.562 111.303C104.562 109.893 103.544 108.855 102.247 108.855Z" fill="#ffffff"></path>
    <path d="M107.137 108.608C107.137 108.371 107.314 108.194 107.549 108.194C107.785 108.194 107.962 108.371 107.962 108.608V111.674C107.962 112.917 108.611 113.708 109.892 113.708C111.061 113.708 111.956 112.852 111.956 111.497V108.608C111.956 108.371 112.133 108.194 112.369 108.194C112.604 108.194 112.781 108.371 112.781 108.608V113.998C112.781 114.235 112.604 114.412 112.369 114.412C112.133 114.412 111.956 114.235 111.956 113.998V113.277C111.516 114.036 110.717 114.466 109.71 114.466C108.112 114.466 107.137 113.293 107.137 111.69V108.608Z" fill="#ffffff"></path>
    <path d="M115.802 109.409C116.327 108.619 117.164 108.14 118.268 108.14C119.946 108.14 121.286 109.469 121.286 111.303C121.286 113.137 119.951 114.466 118.268 114.466C117.164 114.466 116.327 113.982 115.802 113.197V116.58C115.802 116.817 115.625 116.995 115.389 116.995C115.153 116.995 114.977 116.817 114.977 116.58V108.608C114.977 108.371 115.153 108.194 115.389 108.194C115.625 108.194 115.802 108.371 115.802 108.608V109.409ZM118.145 108.844C116.724 108.844 115.802 109.963 115.802 111.303C115.802 112.642 116.724 113.761 118.145 113.761C119.565 113.761 120.46 112.739 120.46 111.303C120.46 109.867 119.522 108.844 118.145 108.844Z" fill="#ffffff"></path>
    <path d="M132.438 109.302C132.492 109.382 132.524 109.452 132.524 109.549C132.524 109.759 132.347 109.894 132.122 109.894C131.983 109.894 131.902 109.813 131.832 109.727C131.339 109.13 130.825 108.855 130.015 108.855C128.664 108.855 127.689 109.947 127.689 111.303C127.689 112.659 128.664 113.751 130.015 113.751C130.83 113.751 131.339 113.476 131.832 112.879C131.902 112.798 131.983 112.712 132.122 112.712C132.342 112.712 132.524 112.852 132.524 113.057C132.524 113.154 132.497 113.223 132.438 113.304C132.025 113.928 131.146 114.466 130.015 114.466C128.209 114.466 126.863 113.11 126.863 111.303C126.863 109.495 128.214 108.14 130.015 108.14C131.146 108.14 132.025 108.678 132.438 109.302Z" fill="#ffffff"></path>
    <path d="M136.895 114.471C135.051 114.471 133.754 113.062 133.754 111.308C133.754 109.555 135.046 108.145 136.895 108.145C138.744 108.145 140.036 109.555 140.036 111.308C140.036 113.062 138.739 114.471 136.895 114.471ZM136.895 108.855C135.603 108.855 134.579 109.893 134.579 111.303C134.579 112.712 135.598 113.751 136.895 113.751C138.192 113.751 139.211 112.712 139.211 111.303C139.211 109.893 138.192 108.855 136.895 108.855Z" fill="#ffffff"></path>
    <path d="M152.153 113.998C152.153 114.235 151.976 114.412 151.74 114.412C151.504 114.412 151.327 114.235 151.327 113.998V110.932C151.327 109.689 150.706 108.898 149.43 108.898C148.256 108.898 147.42 109.754 147.42 111.109V113.998C147.42 114.235 147.243 114.412 147.007 114.412C146.771 114.412 146.594 114.235 146.594 113.998V110.932C146.594 109.689 145.972 108.898 144.691 108.898C143.523 108.898 142.681 109.754 142.681 111.109V113.998C142.681 114.235 142.504 114.412 142.268 114.412C142.032 114.412 141.855 114.235 141.855 113.998V108.608C141.855 108.371 142.032 108.194 142.268 108.194C142.504 108.194 142.681 108.371 142.681 108.608V109.329C143.121 108.57 143.866 108.14 144.873 108.14C145.972 108.14 146.787 108.737 147.157 109.538C147.736 108.527 148.551 108.14 149.607 108.14C151.204 108.14 152.153 109.318 152.153 110.921V114.003V113.998Z" fill="#ffffff"></path>
    <path d="M155.107 109.409C155.632 108.619 156.468 108.14 157.573 108.14C159.25 108.14 160.59 109.469 160.59 111.303C160.59 113.137 159.256 114.466 157.573 114.466C156.468 114.466 155.632 113.982 155.107 113.197V116.58C155.107 116.817 154.93 116.995 154.694 116.995C154.458 116.995 154.281 116.817 154.281 116.58V108.608C154.281 108.371 154.458 108.194 154.694 108.194C154.93 108.194 155.107 108.371 155.107 108.608V109.409ZM157.449 108.844C156.029 108.844 155.107 109.963 155.107 111.303C155.107 112.642 156.029 113.761 157.449 113.761C158.87 113.761 159.765 112.739 159.765 111.303C159.765 109.867 158.827 108.844 157.449 108.844Z" fill="#ffffff"></path>
    <path d="M166.956 114.412C166.693 114.412 166.543 114.219 166.543 113.998V113.697C166.077 114.224 165.332 114.471 164.49 114.471C163.016 114.471 162.078 113.697 162.078 112.659C162.078 111.55 163.086 110.819 164.614 110.819C165.509 110.819 166.227 111.19 166.543 111.567V110.749C166.543 109.436 165.895 108.844 164.544 108.844C163.885 108.844 163.386 108.984 162.85 109.205C162.807 109.221 162.737 109.248 162.657 109.248C162.437 109.248 162.298 109.124 162.298 108.904C162.298 108.764 162.394 108.656 162.507 108.602C163.043 108.328 163.692 108.145 164.614 108.145C166.35 108.145 167.369 109.07 167.369 110.743V114.003C167.369 114.224 167.219 114.418 166.956 114.418V114.412ZM164.667 111.443C163.595 111.443 162.904 111.927 162.904 112.659C162.904 113.39 163.59 113.864 164.614 113.864C165.637 113.864 166.543 113.396 166.543 112.659C166.543 111.922 165.605 111.443 164.673 111.443H164.667Z" fill="#ffffff"></path>
    <path d="M175.148 113.998C175.148 114.235 174.972 114.412 174.736 114.412C174.5 114.412 174.323 114.235 174.323 113.998V110.932C174.323 109.689 173.674 108.898 172.393 108.898C171.219 108.898 170.329 109.754 170.329 111.109V113.998C170.329 114.235 170.153 114.412 169.917 114.412C169.681 114.412 169.504 114.235 169.504 113.998V108.608C169.504 108.371 169.681 108.194 169.917 108.194C170.153 108.194 170.329 108.371 170.329 108.608V109.329C170.769 108.57 171.568 108.14 172.575 108.14C174.173 108.14 175.148 109.318 175.148 110.921V114.003V113.998Z" fill="#ffffff"></path>
    <path d="M181.89 108.748C181.89 108.748 180.54 112.067 179.864 113.67C179.328 114.956 178.46 116.198 177.232 116.93C177.162 116.973 177.093 117 176.986 117C176.766 117 176.626 116.849 176.626 116.656C176.626 116.505 176.707 116.408 176.873 116.311C177.629 115.784 178.197 115.219 178.744 114.267L176.401 108.78C176.374 108.71 176.348 108.64 176.348 108.57C176.348 108.36 176.498 108.199 176.734 108.199C176.927 108.199 177.023 108.296 177.093 108.463L179.173 113.385L181.21 108.436C181.263 108.296 181.36 108.199 181.553 108.199C181.789 108.199 181.923 108.366 181.923 108.57C181.923 108.624 181.906 108.683 181.88 108.748H181.89Z" fill="#ffffff"></path>
    <path d="M187.595 9.10229H186.158V13.2338C186.158 13.4436 186.013 13.6104 185.799 13.6104C185.584 13.6104 185.424 13.4382 185.424 13.2338V9.10229H183.971C183.778 9.10229 183.617 8.94628 183.617 8.76338C183.617 8.56433 183.773 8.40833 183.971 8.40833H187.6C187.798 8.40833 187.954 8.56433 187.954 8.76338C187.954 8.94628 187.793 9.10229 187.6 9.10229H187.595Z" fill="#ffffff"></path>
    <path d="M193.323 8.56969C193.393 8.42982 193.484 8.34375 193.656 8.34375C193.854 8.34375 194.004 8.46748 194.004 8.69342V13.2553C194.004 13.4489 193.876 13.6103 193.656 13.6103C193.436 13.6103 193.302 13.4489 193.302 13.2553V10.1298L191.705 13.3952C191.646 13.5243 191.549 13.6103 191.383 13.6103C191.217 13.6103 191.12 13.5243 191.061 13.3952L189.464 10.1298V13.2553C189.464 13.4489 189.335 13.6103 189.11 13.6103C188.885 13.6103 188.762 13.4489 188.762 13.2553V8.69342C188.762 8.46748 188.906 8.34375 189.11 8.34375C189.282 8.34375 189.373 8.42982 189.442 8.56969L191.388 12.5775L193.334 8.56969H193.323Z" fill="#ffffff"></path>
    </g>
    <defs>
    <clipPath id="clip0_5414_21807">
    <rect width="194" height="117" fill="white"></rect>
    </clipPath>
    </defs>
</svg>